<mxfile host="app.diagrams.net" modified="2024-03-26T22:04:25.575Z" agent="Mozilla/5.0 (Windows NT 10.0; Win64; x64) AppleWebKit/537.36 (KHTML, like Gecko) Chrome/122.0.0.0 Safari/537.36" etag="IMvDBETLJg8LlS-tsCQV" version="24.1.0" type="google">
  <diagram name="Página-1" id="n2aCToCnNuZ-l5oN--xS">
    <mxGraphModel grid="1" page="1" gridSize="10" guides="1" tooltips="1" connect="1" arrows="1" fold="1" pageScale="1" pageWidth="827" pageHeight="1169" math="0" shadow="0">
      <root>
        <mxCell id="0" />
        <mxCell id="1" parent="0" />
        <mxCell id="Gm_UzDTwPOhzXwoYxphM-3" value="" style="edgeStyle=orthogonalEdgeStyle;rounded=0;orthogonalLoop=1;jettySize=auto;html=1;" edge="1" parent="1" source="Gm_UzDTwPOhzXwoYxphM-1" target="Gm_UzDTwPOhzXwoYxphM-2">
          <mxGeometry relative="1" as="geometry" />
        </mxCell>
        <mxCell id="Gm_UzDTwPOhzXwoYxphM-1" value="Inicio" style="ellipse;whiteSpace=wrap;html=1;" vertex="1" parent="1">
          <mxGeometry x="80" y="113" width="120" height="80" as="geometry" />
        </mxCell>
        <mxCell id="Gm_UzDTwPOhzXwoYxphM-5" value="" style="edgeStyle=orthogonalEdgeStyle;rounded=0;orthogonalLoop=1;jettySize=auto;html=1;" edge="1" parent="1" source="Gm_UzDTwPOhzXwoYxphM-2" target="Gm_UzDTwPOhzXwoYxphM-4">
          <mxGeometry relative="1" as="geometry" />
        </mxCell>
        <mxCell id="Gm_UzDTwPOhzXwoYxphM-2" value="VALOR, QTDE" style="shape=parallelogram;perimeter=parallelogramPerimeter;whiteSpace=wrap;html=1;fixedSize=1;" vertex="1" parent="1">
          <mxGeometry x="70" y="263" width="140" height="60" as="geometry" />
        </mxCell>
        <mxCell id="Gm_UzDTwPOhzXwoYxphM-7" value="" style="edgeStyle=orthogonalEdgeStyle;rounded=0;orthogonalLoop=1;jettySize=auto;html=1;" edge="1" parent="1" source="Gm_UzDTwPOhzXwoYxphM-4" target="Gm_UzDTwPOhzXwoYxphM-6">
          <mxGeometry relative="1" as="geometry" />
        </mxCell>
        <mxCell id="Gm_UzDTwPOhzXwoYxphM-4" value="VT = QTDE * VALOR" style="whiteSpace=wrap;html=1;" vertex="1" parent="1">
          <mxGeometry x="65" y="403" width="150" height="60" as="geometry" />
        </mxCell>
        <mxCell id="Gm_UzDTwPOhzXwoYxphM-12" value="" style="edgeStyle=orthogonalEdgeStyle;rounded=0;orthogonalLoop=1;jettySize=auto;html=1;exitX=0.506;exitY=0.832;exitDx=0;exitDy=0;exitPerimeter=0;" edge="1" parent="1" source="Gm_UzDTwPOhzXwoYxphM-6">
          <mxGeometry relative="1" as="geometry">
            <mxPoint x="140" y="602" as="sourcePoint" />
            <mxPoint x="140" y="682" as="targetPoint" />
          </mxGeometry>
        </mxCell>
        <mxCell id="Gm_UzDTwPOhzXwoYxphM-6" value="Mostre VT" style="shape=document;whiteSpace=wrap;html=1;boundedLbl=1;" vertex="1" parent="1">
          <mxGeometry x="80" y="533" width="120" height="67" as="geometry" />
        </mxCell>
        <mxCell id="Gm_UzDTwPOhzXwoYxphM-11" value="Fim" style="ellipse;whiteSpace=wrap;html=1;" vertex="1" parent="1">
          <mxGeometry x="80" y="685" width="120" height="80" as="geometry" />
        </mxCell>
        <mxCell id="Gm_UzDTwPOhzXwoYxphM-13" value="" style="edgeStyle=orthogonalEdgeStyle;rounded=0;orthogonalLoop=1;jettySize=auto;html=1;" edge="1" parent="1" source="Gm_UzDTwPOhzXwoYxphM-14" target="Gm_UzDTwPOhzXwoYxphM-16">
          <mxGeometry relative="1" as="geometry" />
        </mxCell>
        <mxCell id="Gm_UzDTwPOhzXwoYxphM-14" value="Inicio" style="ellipse;whiteSpace=wrap;html=1;" vertex="1" parent="1">
          <mxGeometry x="375" y="113" width="120" height="80" as="geometry" />
        </mxCell>
        <mxCell id="Gm_UzDTwPOhzXwoYxphM-15" value="" style="edgeStyle=orthogonalEdgeStyle;rounded=0;orthogonalLoop=1;jettySize=auto;html=1;" edge="1" parent="1" source="Gm_UzDTwPOhzXwoYxphM-16" target="Gm_UzDTwPOhzXwoYxphM-18">
          <mxGeometry relative="1" as="geometry" />
        </mxCell>
        <mxCell id="Gm_UzDTwPOhzXwoYxphM-16" value="QTDEMIN, QTDEMAX" style="shape=parallelogram;perimeter=parallelogramPerimeter;whiteSpace=wrap;html=1;fixedSize=1;" vertex="1" parent="1">
          <mxGeometry x="347.5" y="263" width="175" height="60" as="geometry" />
        </mxCell>
        <mxCell id="Gm_UzDTwPOhzXwoYxphM-17" value="" style="edgeStyle=orthogonalEdgeStyle;rounded=0;orthogonalLoop=1;jettySize=auto;html=1;" edge="1" parent="1" source="Gm_UzDTwPOhzXwoYxphM-18" target="Gm_UzDTwPOhzXwoYxphM-20">
          <mxGeometry relative="1" as="geometry" />
        </mxCell>
        <mxCell id="Gm_UzDTwPOhzXwoYxphM-18" value="&lt;div style=&quot;font-family: monospace, Consolas, &amp;quot;Courier New&amp;quot;, monospace; font-size: 14px; line-height: 19px; white-space: pre;&quot;&gt;EST_MED = (QTDEMIN + QTDEMAX)/2&lt;/div&gt;" style="whiteSpace=wrap;html=1;" vertex="1" parent="1">
          <mxGeometry x="302.5" y="400" width="265" height="60" as="geometry" />
        </mxCell>
        <mxCell id="Gm_UzDTwPOhzXwoYxphM-19" value="" style="edgeStyle=orthogonalEdgeStyle;rounded=0;orthogonalLoop=1;jettySize=auto;html=1;exitX=0.497;exitY=0.896;exitDx=0;exitDy=0;exitPerimeter=0;" edge="1" parent="1" source="Gm_UzDTwPOhzXwoYxphM-20">
          <mxGeometry relative="1" as="geometry">
            <mxPoint x="435" y="602" as="sourcePoint" />
            <mxPoint x="435" y="682" as="targetPoint" />
          </mxGeometry>
        </mxCell>
        <mxCell id="Gm_UzDTwPOhzXwoYxphM-20" value="Mostre EST_MED" style="shape=document;whiteSpace=wrap;html=1;boundedLbl=1;size=0.25;" vertex="1" parent="1">
          <mxGeometry x="367.5" y="533" width="135" height="70" as="geometry" />
        </mxCell>
        <mxCell id="Gm_UzDTwPOhzXwoYxphM-21" value="Fim" style="ellipse;whiteSpace=wrap;html=1;" vertex="1" parent="1">
          <mxGeometry x="375" y="685" width="120" height="80" as="geometry" />
        </mxCell>
        <mxCell id="Gm_UzDTwPOhzXwoYxphM-31" value="Exercício 1" style="swimlane;whiteSpace=wrap;html=1;" vertex="1" parent="1">
          <mxGeometry x="40" y="83" width="200" height="20" as="geometry" />
        </mxCell>
        <mxCell id="Gm_UzDTwPOhzXwoYxphM-32" value="Exercício 2" style="swimlane;whiteSpace=wrap;html=1;" vertex="1" parent="1">
          <mxGeometry x="335" y="83" width="200" height="20" as="geometry" />
        </mxCell>
        <mxCell id="Gm_UzDTwPOhzXwoYxphM-33" value="" style="edgeStyle=orthogonalEdgeStyle;rounded=0;orthogonalLoop=1;jettySize=auto;html=1;" edge="1" parent="1" source="Gm_UzDTwPOhzXwoYxphM-34" target="Gm_UzDTwPOhzXwoYxphM-36">
          <mxGeometry relative="1" as="geometry" />
        </mxCell>
        <mxCell id="Gm_UzDTwPOhzXwoYxphM-34" value="Inicio" style="ellipse;whiteSpace=wrap;html=1;" vertex="1" parent="1">
          <mxGeometry x="733" y="113" width="120" height="80" as="geometry" />
        </mxCell>
        <mxCell id="Gm_UzDTwPOhzXwoYxphM-35" value="" style="edgeStyle=orthogonalEdgeStyle;rounded=0;orthogonalLoop=1;jettySize=auto;html=1;" edge="1" parent="1" source="Gm_UzDTwPOhzXwoYxphM-36" target="Gm_UzDTwPOhzXwoYxphM-38">
          <mxGeometry relative="1" as="geometry" />
        </mxCell>
        <mxCell id="Gm_UzDTwPOhzXwoYxphM-36" value="h, m" style="shape=parallelogram;perimeter=parallelogramPerimeter;whiteSpace=wrap;html=1;fixedSize=1;" vertex="1" parent="1">
          <mxGeometry x="745.75" y="263" width="94.5" height="60" as="geometry" />
        </mxCell>
        <mxCell id="Gm_UzDTwPOhzXwoYxphM-37" value="" style="edgeStyle=orthogonalEdgeStyle;rounded=0;orthogonalLoop=1;jettySize=auto;html=1;" edge="1" parent="1" source="Gm_UzDTwPOhzXwoYxphM-38" target="Gm_UzDTwPOhzXwoYxphM-40">
          <mxGeometry relative="1" as="geometry" />
        </mxCell>
        <mxCell id="Gm_UzDTwPOhzXwoYxphM-38" value="s = m*60 + h*60*60" style="whiteSpace=wrap;html=1;" vertex="1" parent="1">
          <mxGeometry x="704.5" y="400" width="177" height="60" as="geometry" />
        </mxCell>
        <mxCell id="Gm_UzDTwPOhzXwoYxphM-39" value="" style="edgeStyle=orthogonalEdgeStyle;rounded=0;orthogonalLoop=1;jettySize=auto;html=1;exitX=0.506;exitY=0.908;exitDx=0;exitDy=0;exitPerimeter=0;" edge="1" parent="1" source="Gm_UzDTwPOhzXwoYxphM-40">
          <mxGeometry relative="1" as="geometry">
            <mxPoint x="793" y="602" as="sourcePoint" />
            <mxPoint x="793" y="682" as="targetPoint" />
          </mxGeometry>
        </mxCell>
        <mxCell id="Gm_UzDTwPOhzXwoYxphM-40" value="Mostre g" style="shape=document;whiteSpace=wrap;html=1;boundedLbl=1;size=0.25;" vertex="1" parent="1">
          <mxGeometry x="725.5" y="533" width="135" height="70" as="geometry" />
        </mxCell>
        <mxCell id="Gm_UzDTwPOhzXwoYxphM-41" value="Fim" style="ellipse;whiteSpace=wrap;html=1;" vertex="1" parent="1">
          <mxGeometry x="733" y="685" width="120" height="80" as="geometry" />
        </mxCell>
        <mxCell id="Gm_UzDTwPOhzXwoYxphM-42" value="Exercício 3" style="swimlane;whiteSpace=wrap;html=1;" vertex="1" parent="1">
          <mxGeometry x="693" y="83" width="200" height="20" as="geometry" />
        </mxCell>
        <mxCell id="JHf5F62r-WYd6451PknL-1" value="" style="edgeStyle=orthogonalEdgeStyle;rounded=0;orthogonalLoop=1;jettySize=auto;html=1;" edge="1" parent="1" source="JHf5F62r-WYd6451PknL-2" target="JHf5F62r-WYd6451PknL-4">
          <mxGeometry relative="1" as="geometry" />
        </mxCell>
        <mxCell id="JHf5F62r-WYd6451PknL-2" value="Inicio" style="ellipse;whiteSpace=wrap;html=1;" vertex="1" parent="1">
          <mxGeometry x="1076" y="113" width="120" height="80" as="geometry" />
        </mxCell>
        <mxCell id="JHf5F62r-WYd6451PknL-3" value="" style="edgeStyle=orthogonalEdgeStyle;rounded=0;orthogonalLoop=1;jettySize=auto;html=1;" edge="1" parent="1" source="JHf5F62r-WYd6451PknL-4" target="JHf5F62r-WYd6451PknL-6">
          <mxGeometry relative="1" as="geometry" />
        </mxCell>
        <mxCell id="JHf5F62r-WYd6451PknL-4" value="h, m, pre_h" style="shape=parallelogram;perimeter=parallelogramPerimeter;whiteSpace=wrap;html=1;fixedSize=1;" vertex="1" parent="1">
          <mxGeometry x="1048.5" y="263" width="175" height="60" as="geometry" />
        </mxCell>
        <mxCell id="JHf5F62r-WYd6451PknL-5" value="" style="edgeStyle=orthogonalEdgeStyle;rounded=0;orthogonalLoop=1;jettySize=auto;html=1;" edge="1" parent="1" source="JHf5F62r-WYd6451PknL-6" target="JHf5F62r-WYd6451PknL-8">
          <mxGeometry relative="1" as="geometry" />
        </mxCell>
        <mxCell id="JHf5F62r-WYd6451PknL-6" value="&lt;div style=&quot;font-family: monospace, Consolas, &amp;quot;Courier New&amp;quot;, monospace; font-size: 14px; line-height: 19px; white-space: pre;&quot;&gt;gan_hora = (m/60 + h)*pre_h&lt;/div&gt;&lt;div style=&quot;font-family: monospace, Consolas, &amp;quot;Courier New&amp;quot;, monospace; font-size: 14px; line-height: 19px; white-space: pre;&quot;&gt;gan = (gan_hora*70/100) + gan_hora&lt;/div&gt;" style="whiteSpace=wrap;html=1;" vertex="1" parent="1">
          <mxGeometry x="990.5" y="403" width="291" height="60" as="geometry" />
        </mxCell>
        <mxCell id="JHf5F62r-WYd6451PknL-7" value="" style="edgeStyle=orthogonalEdgeStyle;rounded=0;orthogonalLoop=1;jettySize=auto;html=1;exitX=0.516;exitY=0.92;exitDx=0;exitDy=0;exitPerimeter=0;" edge="1" parent="1" source="JHf5F62r-WYd6451PknL-8">
          <mxGeometry relative="1" as="geometry">
            <mxPoint x="1136" y="602" as="sourcePoint" />
            <mxPoint x="1136" y="682" as="targetPoint" />
          </mxGeometry>
        </mxCell>
        <mxCell id="JHf5F62r-WYd6451PknL-8" value="Mostre gan" style="shape=document;whiteSpace=wrap;html=1;boundedLbl=1;size=0.25;" vertex="1" parent="1">
          <mxGeometry x="1068.5" y="533" width="135" height="70" as="geometry" />
        </mxCell>
        <mxCell id="JHf5F62r-WYd6451PknL-9" value="Fim" style="ellipse;whiteSpace=wrap;html=1;" vertex="1" parent="1">
          <mxGeometry x="1076" y="685" width="120" height="80" as="geometry" />
        </mxCell>
        <mxCell id="JHf5F62r-WYd6451PknL-10" value="Exercício 4" style="swimlane;whiteSpace=wrap;html=1;" vertex="1" parent="1">
          <mxGeometry x="1036" y="83" width="200" height="20" as="geometry" />
        </mxCell>
        <mxCell id="DIejuDWTM2tXZ5F97_XE-1" value="" style="edgeStyle=orthogonalEdgeStyle;rounded=0;orthogonalLoop=1;jettySize=auto;html=1;" edge="1" parent="1" source="DIejuDWTM2tXZ5F97_XE-2" target="DIejuDWTM2tXZ5F97_XE-4">
          <mxGeometry relative="1" as="geometry" />
        </mxCell>
        <mxCell id="DIejuDWTM2tXZ5F97_XE-2" value="Inicio" style="ellipse;whiteSpace=wrap;html=1;" vertex="1" parent="1">
          <mxGeometry x="1425" y="113" width="120" height="80" as="geometry" />
        </mxCell>
        <mxCell id="DIejuDWTM2tXZ5F97_XE-3" value="" style="edgeStyle=orthogonalEdgeStyle;rounded=0;orthogonalLoop=1;jettySize=auto;html=1;" edge="1" parent="1" source="DIejuDWTM2tXZ5F97_XE-4" target="DIejuDWTM2tXZ5F97_XE-6">
          <mxGeometry relative="1" as="geometry" />
        </mxCell>
        <mxCell id="DIejuDWTM2tXZ5F97_XE-4" value="cot_dolar, con_real" style="shape=parallelogram;perimeter=parallelogramPerimeter;whiteSpace=wrap;html=1;fixedSize=1;" vertex="1" parent="1">
          <mxGeometry x="1397.5" y="263" width="175" height="60" as="geometry" />
        </mxCell>
        <mxCell id="DIejuDWTM2tXZ5F97_XE-5" value="" style="edgeStyle=orthogonalEdgeStyle;rounded=0;orthogonalLoop=1;jettySize=auto;html=1;" edge="1" parent="1" source="DIejuDWTM2tXZ5F97_XE-6" target="DIejuDWTM2tXZ5F97_XE-8">
          <mxGeometry relative="1" as="geometry" />
        </mxCell>
        <mxCell id="DIejuDWTM2tXZ5F97_XE-6" value="&lt;div style=&quot;font-family: monospace, Consolas, &amp;quot;Courier New&amp;quot;, monospace; font-size: 14px; line-height: 19px; white-space: pre;&quot;&gt;dolar = con_real/cot_dolar&lt;/div&gt;" style="whiteSpace=wrap;html=1;" vertex="1" parent="1">
          <mxGeometry x="1369.75" y="403" width="230.5" height="60" as="geometry" />
        </mxCell>
        <mxCell id="DIejuDWTM2tXZ5F97_XE-7" value="" style="edgeStyle=orthogonalEdgeStyle;rounded=0;orthogonalLoop=1;jettySize=auto;html=1;exitX=0.5;exitY=0.957;exitDx=0;exitDy=0;exitPerimeter=0;" edge="1" parent="1" source="DIejuDWTM2tXZ5F97_XE-8">
          <mxGeometry relative="1" as="geometry">
            <mxPoint x="1485" y="602" as="sourcePoint" />
            <mxPoint x="1485" y="682" as="targetPoint" />
          </mxGeometry>
        </mxCell>
        <mxCell id="DIejuDWTM2tXZ5F97_XE-8" value="Mostre dolar" style="shape=document;whiteSpace=wrap;html=1;boundedLbl=1;size=0.25;" vertex="1" parent="1">
          <mxGeometry x="1417.5" y="533" width="135" height="70" as="geometry" />
        </mxCell>
        <mxCell id="DIejuDWTM2tXZ5F97_XE-9" value="Fim" style="ellipse;whiteSpace=wrap;html=1;" vertex="1" parent="1">
          <mxGeometry x="1425" y="685" width="120" height="80" as="geometry" />
        </mxCell>
        <mxCell id="DIejuDWTM2tXZ5F97_XE-10" value="Exercício 5" style="swimlane;whiteSpace=wrap;html=1;" vertex="1" parent="1">
          <mxGeometry x="1385" y="83" width="200" height="20" as="geometry" />
        </mxCell>
        <mxCell id="DIejuDWTM2tXZ5F97_XE-11" value="" style="edgeStyle=orthogonalEdgeStyle;rounded=0;orthogonalLoop=1;jettySize=auto;html=1;" edge="1" parent="1" source="DIejuDWTM2tXZ5F97_XE-12" target="DIejuDWTM2tXZ5F97_XE-14">
          <mxGeometry relative="1" as="geometry" />
        </mxCell>
        <mxCell id="DIejuDWTM2tXZ5F97_XE-12" value="Inicio" style="ellipse;whiteSpace=wrap;html=1;" vertex="1" parent="1">
          <mxGeometry x="1751" y="112" width="120" height="80" as="geometry" />
        </mxCell>
        <mxCell id="DIejuDWTM2tXZ5F97_XE-13" value="" style="edgeStyle=orthogonalEdgeStyle;rounded=0;orthogonalLoop=1;jettySize=auto;html=1;" edge="1" parent="1" source="DIejuDWTM2tXZ5F97_XE-14" target="DIejuDWTM2tXZ5F97_XE-16">
          <mxGeometry relative="1" as="geometry" />
        </mxCell>
        <mxCell id="DIejuDWTM2tXZ5F97_XE-14" value="pri, seg, ter, qua" style="shape=parallelogram;perimeter=parallelogramPerimeter;whiteSpace=wrap;html=1;fixedSize=1;" vertex="1" parent="1">
          <mxGeometry x="1723.5" y="262" width="175" height="60" as="geometry" />
        </mxCell>
        <mxCell id="DIejuDWTM2tXZ5F97_XE-15" value="" style="edgeStyle=orthogonalEdgeStyle;rounded=0;orthogonalLoop=1;jettySize=auto;html=1;" edge="1" parent="1" source="DIejuDWTM2tXZ5F97_XE-16" target="DIejuDWTM2tXZ5F97_XE-18">
          <mxGeometry relative="1" as="geometry" />
        </mxCell>
        <mxCell id="DIejuDWTM2tXZ5F97_XE-16" value="&lt;div style=&quot;font-family: monospace, Consolas, &amp;quot;Courier New&amp;quot;, monospace; font-size: 14px; line-height: 19px; white-space: pre;&quot;&gt;soma = pri*pri + seg*seg + ter*ter + qua*qua&lt;/div&gt;" style="whiteSpace=wrap;html=1;" vertex="1" parent="1">
          <mxGeometry x="1636.88" y="400" width="348.25" height="60" as="geometry" />
        </mxCell>
        <mxCell id="DIejuDWTM2tXZ5F97_XE-17" value="" style="edgeStyle=orthogonalEdgeStyle;rounded=0;orthogonalLoop=1;jettySize=auto;html=1;exitX=0.501;exitY=0.898;exitDx=0;exitDy=0;exitPerimeter=0;" edge="1" parent="1" source="DIejuDWTM2tXZ5F97_XE-18">
          <mxGeometry relative="1" as="geometry">
            <mxPoint x="1811" y="601" as="sourcePoint" />
            <mxPoint x="1811" y="681" as="targetPoint" />
          </mxGeometry>
        </mxCell>
        <mxCell id="DIejuDWTM2tXZ5F97_XE-18" value="Mostre soma" style="shape=document;whiteSpace=wrap;html=1;boundedLbl=1;size=0.25;" vertex="1" parent="1">
          <mxGeometry x="1743.5" y="532" width="135" height="70" as="geometry" />
        </mxCell>
        <mxCell id="DIejuDWTM2tXZ5F97_XE-19" value="Fim" style="ellipse;whiteSpace=wrap;html=1;" vertex="1" parent="1">
          <mxGeometry x="1751" y="684" width="120" height="80" as="geometry" />
        </mxCell>
        <mxCell id="DIejuDWTM2tXZ5F97_XE-20" value="Exercício 6" style="swimlane;whiteSpace=wrap;html=1;" vertex="1" parent="1">
          <mxGeometry x="1711" y="82" width="200" height="20" as="geometry" />
        </mxCell>
        <mxCell id="DIejuDWTM2tXZ5F97_XE-21" value="" style="edgeStyle=orthogonalEdgeStyle;rounded=0;orthogonalLoop=1;jettySize=auto;html=1;" edge="1" parent="1" source="DIejuDWTM2tXZ5F97_XE-22" target="DIejuDWTM2tXZ5F97_XE-24">
          <mxGeometry relative="1" as="geometry" />
        </mxCell>
        <mxCell id="DIejuDWTM2tXZ5F97_XE-22" value="Inicio" style="ellipse;whiteSpace=wrap;html=1;" vertex="1" parent="1">
          <mxGeometry x="2076.5" y="112" width="120" height="80" as="geometry" />
        </mxCell>
        <mxCell id="DIejuDWTM2tXZ5F97_XE-23" value="" style="edgeStyle=orthogonalEdgeStyle;rounded=0;orthogonalLoop=1;jettySize=auto;html=1;" edge="1" parent="1" source="DIejuDWTM2tXZ5F97_XE-24" target="DIejuDWTM2tXZ5F97_XE-26">
          <mxGeometry relative="1" as="geometry" />
        </mxCell>
        <mxCell id="DIejuDWTM2tXZ5F97_XE-24" value="pre_uni, qua_ven" style="shape=parallelogram;perimeter=parallelogramPerimeter;whiteSpace=wrap;html=1;fixedSize=1;" vertex="1" parent="1">
          <mxGeometry x="2049" y="262" width="175" height="60" as="geometry" />
        </mxCell>
        <mxCell id="DIejuDWTM2tXZ5F97_XE-25" value="" style="edgeStyle=orthogonalEdgeStyle;rounded=0;orthogonalLoop=1;jettySize=auto;html=1;" edge="1" parent="1" source="DIejuDWTM2tXZ5F97_XE-26" target="DIejuDWTM2tXZ5F97_XE-28">
          <mxGeometry relative="1" as="geometry" />
        </mxCell>
        <mxCell id="DIejuDWTM2tXZ5F97_XE-26" value="&lt;div style=&quot;font-family: monospace, Consolas, &amp;quot;Courier New&amp;quot;, monospace; font-size: 14px; line-height: 19px; white-space: pre;&quot;&gt;gan = pre_uni*qua_ven&lt;/div&gt;&lt;div style=&quot;font-family: monospace, Consolas, &amp;quot;Courier New&amp;quot;, monospace; font-size: 14px; line-height: 19px; white-space: pre;&quot;&gt;com = gan*5/100&lt;/div&gt;" style="whiteSpace=wrap;html=1;" vertex="1" parent="1">
          <mxGeometry x="2042.5" y="400" width="188" height="60" as="geometry" />
        </mxCell>
        <mxCell id="DIejuDWTM2tXZ5F97_XE-27" value="" style="edgeStyle=orthogonalEdgeStyle;rounded=0;orthogonalLoop=1;jettySize=auto;html=1;exitX=0.499;exitY=0.86;exitDx=0;exitDy=0;exitPerimeter=0;" edge="1" parent="1" source="DIejuDWTM2tXZ5F97_XE-28">
          <mxGeometry relative="1" as="geometry">
            <mxPoint x="2136.5" y="601" as="sourcePoint" />
            <mxPoint x="2136.5" y="681" as="targetPoint" />
          </mxGeometry>
        </mxCell>
        <mxCell id="DIejuDWTM2tXZ5F97_XE-28" value="Mostre gan&lt;div&gt;Moste com&lt;/div&gt;" style="shape=document;whiteSpace=wrap;html=1;boundedLbl=1;size=0.25;" vertex="1" parent="1">
          <mxGeometry x="2069" y="532" width="135" height="68" as="geometry" />
        </mxCell>
        <mxCell id="DIejuDWTM2tXZ5F97_XE-29" value="Fim" style="ellipse;whiteSpace=wrap;html=1;" vertex="1" parent="1">
          <mxGeometry x="2076.5" y="684" width="120" height="80" as="geometry" />
        </mxCell>
        <mxCell id="DIejuDWTM2tXZ5F97_XE-30" value="Exercício 7" style="swimlane;whiteSpace=wrap;html=1;" vertex="1" parent="1">
          <mxGeometry x="2036.5" y="82" width="200" height="20" as="geometry" />
        </mxCell>
        <mxCell id="DIejuDWTM2tXZ5F97_XE-31" value="" style="edgeStyle=orthogonalEdgeStyle;rounded=0;orthogonalLoop=1;jettySize=auto;html=1;" edge="1" parent="1" source="DIejuDWTM2tXZ5F97_XE-32" target="DIejuDWTM2tXZ5F97_XE-34">
          <mxGeometry relative="1" as="geometry" />
        </mxCell>
        <mxCell id="DIejuDWTM2tXZ5F97_XE-32" value="Inicio" style="ellipse;whiteSpace=wrap;html=1;" vertex="1" parent="1">
          <mxGeometry x="2402.5" y="113" width="120" height="80" as="geometry" />
        </mxCell>
        <mxCell id="DIejuDWTM2tXZ5F97_XE-33" value="" style="edgeStyle=orthogonalEdgeStyle;rounded=0;orthogonalLoop=1;jettySize=auto;html=1;" edge="1" parent="1" source="DIejuDWTM2tXZ5F97_XE-34">
          <mxGeometry relative="1" as="geometry">
            <mxPoint x="2463" y="403" as="targetPoint" />
          </mxGeometry>
        </mxCell>
        <mxCell id="DIejuDWTM2tXZ5F97_XE-34" value="Cus_fab" style="shape=parallelogram;perimeter=parallelogramPerimeter;whiteSpace=wrap;html=1;fixedSize=1;" vertex="1" parent="1">
          <mxGeometry x="2375" y="263" width="175" height="60" as="geometry" />
        </mxCell>
        <mxCell id="DIejuDWTM2tXZ5F97_XE-35" value="" style="edgeStyle=orthogonalEdgeStyle;rounded=0;orthogonalLoop=1;jettySize=auto;html=1;" edge="1" parent="1" target="DIejuDWTM2tXZ5F97_XE-37">
          <mxGeometry relative="1" as="geometry">
            <mxPoint x="2463" y="463" as="sourcePoint" />
          </mxGeometry>
        </mxCell>
        <mxCell id="DIejuDWTM2tXZ5F97_XE-36" value="" style="edgeStyle=orthogonalEdgeStyle;rounded=0;orthogonalLoop=1;jettySize=auto;html=1;exitX=0.499;exitY=0.86;exitDx=0;exitDy=0;exitPerimeter=0;" edge="1" parent="1" source="DIejuDWTM2tXZ5F97_XE-37">
          <mxGeometry relative="1" as="geometry">
            <mxPoint x="2462.5" y="602" as="sourcePoint" />
            <mxPoint x="2462.5" y="682" as="targetPoint" />
          </mxGeometry>
        </mxCell>
        <mxCell id="DIejuDWTM2tXZ5F97_XE-37" value="Mostre Cus_cons" style="shape=document;whiteSpace=wrap;html=1;boundedLbl=1;size=0.25;" vertex="1" parent="1">
          <mxGeometry x="2396.5" y="532.5" width="135" height="68" as="geometry" />
        </mxCell>
        <mxCell id="DIejuDWTM2tXZ5F97_XE-38" value="Fim" style="ellipse;whiteSpace=wrap;html=1;" vertex="1" parent="1">
          <mxGeometry x="2402.5" y="685" width="120" height="80" as="geometry" />
        </mxCell>
        <mxCell id="DIejuDWTM2tXZ5F97_XE-39" value="Exercício 8" style="swimlane;whiteSpace=wrap;html=1;" vertex="1" parent="1">
          <mxGeometry x="2362.5" y="83" width="200" height="20" as="geometry" />
        </mxCell>
        <mxCell id="DIejuDWTM2tXZ5F97_XE-40" value="&lt;div style=&quot;font-family: monospace, Consolas, &amp;quot;Courier New&amp;quot;, monospace; font-size: 14px; line-height: 19px; white-space: pre;&quot;&gt;Cus_impo = Cus_fab + Cus_fab*45/100&lt;/div&gt;&lt;div style=&quot;font-family: monospace, Consolas, &amp;quot;Courier New&amp;quot;, monospace; font-size: 14px; line-height: 19px; white-space: pre;&quot;&gt;Cus_cons = Cus_impo + (Cus_impo*28/100)&lt;/div&gt;" style="whiteSpace=wrap;html=1;" vertex="1" parent="1">
          <mxGeometry x="2300" y="402" width="328" height="60" as="geometry" />
        </mxCell>
        <mxCell id="DIejuDWTM2tXZ5F97_XE-41" value="" style="edgeStyle=orthogonalEdgeStyle;rounded=0;orthogonalLoop=1;jettySize=auto;html=1;" edge="1" parent="1" source="DIejuDWTM2tXZ5F97_XE-42" target="DIejuDWTM2tXZ5F97_XE-44">
          <mxGeometry relative="1" as="geometry" />
        </mxCell>
        <mxCell id="DIejuDWTM2tXZ5F97_XE-42" value="Inicio" style="ellipse;whiteSpace=wrap;html=1;" vertex="1" parent="1">
          <mxGeometry x="2767.5" y="114" width="120" height="80" as="geometry" />
        </mxCell>
        <mxCell id="DIejuDWTM2tXZ5F97_XE-43" value="" style="edgeStyle=orthogonalEdgeStyle;rounded=0;orthogonalLoop=1;jettySize=auto;html=1;exitX=0.5;exitY=1;exitDx=0;exitDy=0;" edge="1" parent="1" source="DIejuDWTM2tXZ5F97_XE-44">
          <mxGeometry relative="1" as="geometry">
            <mxPoint x="2826" y="400" as="targetPoint" />
          </mxGeometry>
        </mxCell>
        <mxCell id="DIejuDWTM2tXZ5F97_XE-44" value="km, cons, pre_gas" style="shape=parallelogram;perimeter=parallelogramPerimeter;whiteSpace=wrap;html=1;fixedSize=1;" vertex="1" parent="1">
          <mxGeometry x="2740" y="264" width="175" height="60" as="geometry" />
        </mxCell>
        <mxCell id="DIejuDWTM2tXZ5F97_XE-45" value="" style="edgeStyle=orthogonalEdgeStyle;rounded=0;orthogonalLoop=1;jettySize=auto;html=1;" edge="1" parent="1" target="DIejuDWTM2tXZ5F97_XE-47">
          <mxGeometry relative="1" as="geometry">
            <mxPoint x="2828" y="464" as="sourcePoint" />
          </mxGeometry>
        </mxCell>
        <mxCell id="DIejuDWTM2tXZ5F97_XE-46" value="" style="edgeStyle=orthogonalEdgeStyle;rounded=0;orthogonalLoop=1;jettySize=auto;html=1;exitX=0.499;exitY=0.86;exitDx=0;exitDy=0;exitPerimeter=0;" edge="1" parent="1" source="DIejuDWTM2tXZ5F97_XE-47">
          <mxGeometry relative="1" as="geometry">
            <mxPoint x="2827.5" y="603" as="sourcePoint" />
            <mxPoint x="2827.5" y="683" as="targetPoint" />
          </mxGeometry>
        </mxCell>
        <mxCell id="DIejuDWTM2tXZ5F97_XE-47" value="Mostre gast&lt;div&gt;Mostre gast_tt&lt;br&gt;&lt;/div&gt;" style="shape=document;whiteSpace=wrap;html=1;boundedLbl=1;size=0.25;" vertex="1" parent="1">
          <mxGeometry x="2761.5" y="533.5" width="135" height="68" as="geometry" />
        </mxCell>
        <mxCell id="DIejuDWTM2tXZ5F97_XE-48" value="Fim" style="ellipse;whiteSpace=wrap;html=1;" vertex="1" parent="1">
          <mxGeometry x="2767.5" y="686" width="120" height="80" as="geometry" />
        </mxCell>
        <mxCell id="DIejuDWTM2tXZ5F97_XE-49" value="Exercício 9" style="swimlane;whiteSpace=wrap;html=1;" vertex="1" parent="1">
          <mxGeometry x="2727.5" y="84" width="200" height="20" as="geometry" />
        </mxCell>
        <mxCell id="DIejuDWTM2tXZ5F97_XE-50" value="&lt;div style=&quot;font-family: monospace, Consolas, &amp;quot;Courier New&amp;quot;, monospace; font-size: 14px; line-height: 19px; white-space: pre;&quot;&gt;gast = (km/cons)*pre_gas&lt;/div&gt;&lt;div style=&quot;font-family: monospace, Consolas, &amp;quot;Courier New&amp;quot;, monospace; font-size: 14px; line-height: 19px; white-space: pre;&quot;&gt;gast_tt = gast*2&lt;/div&gt;" style="whiteSpace=wrap;html=1;" vertex="1" parent="1">
          <mxGeometry x="2722" y="402" width="211" height="60" as="geometry" />
        </mxCell>
        <mxCell id="DIejuDWTM2tXZ5F97_XE-51" value="" style="edgeStyle=orthogonalEdgeStyle;rounded=0;orthogonalLoop=1;jettySize=auto;html=1;" edge="1" parent="1" source="DIejuDWTM2tXZ5F97_XE-52" target="DIejuDWTM2tXZ5F97_XE-54">
          <mxGeometry relative="1" as="geometry" />
        </mxCell>
        <mxCell id="DIejuDWTM2tXZ5F97_XE-52" value="Inicio" style="ellipse;whiteSpace=wrap;html=1;" vertex="1" parent="1">
          <mxGeometry x="3075.5" y="114" width="120" height="80" as="geometry" />
        </mxCell>
        <mxCell id="DIejuDWTM2tXZ5F97_XE-53" value="" style="edgeStyle=orthogonalEdgeStyle;rounded=0;orthogonalLoop=1;jettySize=auto;html=1;exitX=0.5;exitY=1;exitDx=0;exitDy=0;" edge="1" parent="1" source="DIejuDWTM2tXZ5F97_XE-54">
          <mxGeometry relative="1" as="geometry">
            <mxPoint x="3134" y="400" as="targetPoint" />
          </mxGeometry>
        </mxCell>
        <mxCell id="DIejuDWTM2tXZ5F97_XE-54" value="km, h_gas,m_gas" style="shape=parallelogram;perimeter=parallelogramPerimeter;whiteSpace=wrap;html=1;fixedSize=1;" vertex="1" parent="1">
          <mxGeometry x="3048" y="264" width="175" height="60" as="geometry" />
        </mxCell>
        <mxCell id="DIejuDWTM2tXZ5F97_XE-55" value="" style="edgeStyle=orthogonalEdgeStyle;rounded=0;orthogonalLoop=1;jettySize=auto;html=1;" edge="1" parent="1" target="DIejuDWTM2tXZ5F97_XE-57">
          <mxGeometry relative="1" as="geometry">
            <mxPoint x="3136" y="464" as="sourcePoint" />
          </mxGeometry>
        </mxCell>
        <mxCell id="DIejuDWTM2tXZ5F97_XE-56" value="" style="edgeStyle=orthogonalEdgeStyle;rounded=0;orthogonalLoop=1;jettySize=auto;html=1;exitX=0.499;exitY=0.86;exitDx=0;exitDy=0;exitPerimeter=0;" edge="1" parent="1" source="DIejuDWTM2tXZ5F97_XE-57">
          <mxGeometry relative="1" as="geometry">
            <mxPoint x="3135.5" y="603" as="sourcePoint" />
            <mxPoint x="3135.5" y="683" as="targetPoint" />
          </mxGeometry>
        </mxCell>
        <mxCell id="DIejuDWTM2tXZ5F97_XE-57" value="Mostre veloc" style="shape=document;whiteSpace=wrap;html=1;boundedLbl=1;size=0.25;" vertex="1" parent="1">
          <mxGeometry x="3069.5" y="533.5" width="135" height="68" as="geometry" />
        </mxCell>
        <mxCell id="DIejuDWTM2tXZ5F97_XE-58" value="Fim" style="ellipse;whiteSpace=wrap;html=1;" vertex="1" parent="1">
          <mxGeometry x="3075.5" y="686" width="120" height="80" as="geometry" />
        </mxCell>
        <mxCell id="DIejuDWTM2tXZ5F97_XE-59" value="Exercício 10" style="swimlane;whiteSpace=wrap;html=1;" vertex="1" parent="1">
          <mxGeometry x="3035.5" y="84" width="200" height="20" as="geometry" />
        </mxCell>
        <mxCell id="DIejuDWTM2tXZ5F97_XE-60" value="&lt;div style=&quot;font-family: monospace, Consolas, &amp;quot;Courier New&amp;quot;, monospace; font-size: 14px; line-height: 19px; white-space: pre;&quot;&gt;veloc = km/(h_gas + m_gas/60)&lt;/div&gt;" style="whiteSpace=wrap;html=1;" vertex="1" parent="1">
          <mxGeometry x="3018" y="402" width="235" height="60" as="geometry" />
        </mxCell>
      </root>
    </mxGraphModel>
  </diagram>
</mxfile>
